<svg xmlns="http://www.w3.org/2000/svg" xmlns:xlink="http://www.w3.org/1999/xlink" width="20" height="20" viewBox="0 0 20 20">
  <defs>
    <clipPath id="clip-path">
      <rect id="Rectangle_49645" data-name="Rectangle 49645" width="20" height="20" transform="translate(0 0.5)" fill="#00193c" stroke="#707070" stroke-width="1"/>
    </clipPath>
  </defs>
  <g id="Mask_Group_899" data-name="Mask Group 899" transform="translate(0 -0.5)" clip-path="url(#clip-path)">
    <g id="svgexport-6_-_2022-10-26T140511.336" data-name="svgexport-6 - 2022-10-26T140511.336" transform="translate(0)">
      <g id="Group_15765" data-name="Group 15765" transform="translate(0.662 1.662)">
        <g id="_x34__4_">
          <g id="Group_15764" data-name="Group 15764">
            <path id="Path_66679" data-name="Path 66679" d="M18.164,17.34,13.43,12.682a7.489,7.489,0,0,0,2-5.089A7.655,7.655,0,0,0,7.715,0,7.654,7.654,0,0,0,0,7.593a7.654,7.654,0,0,0,7.715,7.593,7.759,7.759,0,0,0,4.856-1.7l4.753,4.677a.6.6,0,0,0,.839,0A.578.578,0,0,0,18.164,17.34ZM7.715,14.017A6.477,6.477,0,0,1,1.187,7.593,6.477,6.477,0,0,1,7.715,1.168a6.477,6.477,0,0,1,6.528,6.424A6.477,6.477,0,0,1,7.715,14.017Z" transform="translate(0 0)" fill="#00193c"/>
          </g>
        </g>
      </g>
    </g>
  </g>
</svg>
